<?xml version="1.0" standalone="no"?><!DOCTYPE svg PUBLIC "-//W3C//DTD SVG 1.1//EN" "http://www.w3.org/Graphics/SVG/1.1/DTD/svg11.dtd"><svg t="1758510770649" class="icon" viewBox="0 0 1024 1024" version="1.1" xmlns="http://www.w3.org/2000/svg" p-id="11584" width="48" height="48" xmlns:xlink="http://www.w3.org/1999/xlink"><path d="M512 0C387.657143 0 292.571429 182.857143 277.942857 431.542857c21.942857 21.942857 43.885714 43.885714 73.142857 65.828572 0-29.257143 0-51.2 7.314286-73.142858 21.942857-14.628571 51.2-36.571429 73.142857-51.2 102.4-58.514286 212.114286-102.4 307.2-109.714285h51.2c51.2 0 87.771429 14.628571 102.4 36.571428 14.628571 21.942857 7.314286 51.2-14.628571 95.085715l58.514285 58.514285c43.885714-73.142857 51.2-138.971429 21.942858-190.171428-36.571429-58.514286-117.028571-87.771429-226.742858-73.142857-102.4 14.628571-219.428571 58.514286-336.457142 124.342857-7.314286 0-14.628571 0-21.942858 7.314285 29.257143-146.285714 87.771429-241.371429 138.971429-241.371428 21.942857 0 51.2 21.942857 73.142857 58.514286 29.257143-7.314286 51.2-14.628571 80.457143-21.942858C621.714286 43.885714 570.514286 0 512 0zM241.371429 182.857143c-87.771429 0-146.285714 21.942857-175.542858 73.142857-29.257143 51.2-14.628571 131.657143 36.571429 212.114286 7.314286 7.314286 7.314286 14.628571 14.628571 21.942857 58.514286 80.457143 160.914286 160.914286 270.628572 226.742857 14.628571 7.314286 21.942857 7.314286 29.257143 14.628571-43.885714 14.628571-87.771429 29.257143-131.657143 29.257143-73.142857 7.314286-131.657143 0-153.6-29.257143-7.314286-21.942857 0-58.514286 21.942857-95.085714-21.942857-21.942857-43.885714-36.571429-58.514286-58.514286-43.885714 73.142857-51.2 138.971429-21.942857 190.171429 29.257143 51.2 87.771429 73.142857 168.228572 73.142857 21.942857 0 36.571429 0 58.514285-7.314286 14.628571 0 21.942857 0 36.571429-7.314285h7.314286c21.942857-7.314286 43.885714-7.314286 73.142857-21.942857H438.857143c36.571429-14.628571 80.457143-29.257143 117.028571-51.2 7.314286-29.257143 14.628571-58.514286 21.942857-102.4-21.942857 14.628571-43.885714 29.257143-65.828571 36.571428-29.257143-7.314286-51.2-21.942857-80.457143-36.571428C329.142857 585.142857 241.371429 512 182.857143 438.857143c-43.885714-58.514286-65.828571-109.714286-43.885714-146.285714 7.314286-14.628571 43.885714-29.257143 87.771428-29.257143 0-29.257143 7.314286-58.514286 14.628572-80.457143z m460.8 168.228571c-36.571429 7.314286-65.828571 14.628571-102.4 29.257143l65.828571 43.885714c0 29.257143 7.314286 58.514286 7.314286 87.771429 0 234.057143-73.142857 409.6-146.285715 431.542857H512c-21.942857 0-51.2-21.942857-73.142857-58.514286-29.257143 7.314286-51.2 14.628571-80.457143 21.942858 43.885714 73.142857 95.085714 117.028571 153.6 117.028571h21.942857c124.342857-21.942857 212.114286-234.057143 212.114286-512v-21.942857c36.571429 29.257143 65.828571 65.828571 95.085714 95.085714 43.885714 58.514286 65.828571 117.028571 43.885714 146.285714-14.628571 21.942857-43.885714 29.257143-87.771428 36.571429-7.314286 29.257143-14.628571 51.2-21.942857 80.457143h7.314285c80.457143 0 138.971429-29.257143 168.228572-73.142857 36.571429-58.514286 14.628571-146.285714-51.2-234.057143-43.885714-73.142857-117.028571-131.657143-197.485714-190.171429zM512 431.542857c-43.885714 0-80.457143 36.571429-80.457143 80.457143S468.114286 592.457143 512 592.457143 592.457143 555.885714 592.457143 512 555.885714 431.542857 512 431.542857z" p-id="11585" fill="#1296db"></path></svg>